<svg version="1.2" xmlns="http://www.w3.org/2000/svg" viewBox="0 0 1552 597" width="1552" height="597">
	<title>logo-color (4)</title>
	<style>
		.s0 { fill: #00aeef } 
		.s1 { fill: #1b1464 } 
		.s2 { fill: #ec1c24 } 
	</style>
	<g id="Group_49748">
		<g>
			<g>
				<path class="s0" d="m280.3 3.4c-26.2 63.1-41.2 100.9-36.2 154.7 5.4 57.4 44.4 103.4 80.2 141.8 28.8 30.9 46.3 50.5 54.3 86.2 5.6 24.6 12 76.9-25.1 127.1-44.3 60.2-115.8 62.3-115.8 62.3v18.1c0 0 85.2-3.4 143.3-56.1 40.1-36.4 54.4-68.2 64.8-117.2 8.9-41.7-1.8-101.2-27.8-146.8-14.6-25.7-30.6-47-45.9-64.8-30.3-35.2-52-58.8-71.3-86.9-17.8-26-28.8-48.1-28.8-70.9 0-22.8 8.9-45.6 8.9-45.6 0 0-0.5-1.9-0.6-1.9z"/>
				<path class="s0" d="m177 3.4c26.2 63.1 41.2 100.9 36.2 154.7-5.4 57.4-44.4 103.4-80.2 141.8-28.8 30.9-46.3 50.5-54.3 86.2-5.5 24.6-11.9 76.9 25.1 127.1 44.3 60.2 115.9 62.3 115.9 62.3v18.1c0 0-85.3-3.4-143.4-56.1-40.1-36.4-54.3-68.2-64.8-117.2-8.9-41.7 1.8-101.2 27.8-146.8 14.6-25.7 30.6-47 46-64.8 30.2-35.2 51.9-58.8 71.2-86.9 17.7-26 28.8-48.1 28.8-70.9 0-22.8-8.9-45.6-8.9-45.6 0 0 0.5-1.9 0.6-1.9z"/>
				<path class="s1" d="m326.1 323.1c-25.6-24.5-57.1-63.1-69.6-83.5-22.3-36.5-27.9-68.3-27.9-68.3 0 0-5.9 31.9-28.3 68.3-21.1 34.2-58.2 72.6-70.5 84.8-25.3 25.4-40.9 60.2-40.9 98.9 0 77.2 62.5 139.7 139.7 139.7 77.2 0 139.8-62.5 139.8-139.7 0-39.3-16-75-42.3-100.2z"/>
				<path fill-rule="evenodd" class="s2" d="m228.7 537.6c-63.1 0-114.2-51.1-114.2-114.2 0-63.2 51.1-114.2 114.2-114.2 63.1 0 114.2 51 114.2 114.2 0 63.1-51.1 114.2-114.2 114.2z"/>
			</g>
			<g>
				<path class="s1" d="m1027.2 344.6c7.9-64.4-18.6-98.1-59.5-115.7-1.5-0.6-2.9-1.2-4.4-1.8-1.5-0.6-3-1.1-4.6-1.7q-2.3-0.8-4.6-1.5c-1.5-0.5-3-1-4.7-1.5-36.4-10.8-80.7-12.3-121.7-12.3-111.6 0-253.8 10.7-314.4 191.9-35.4 105.7-4 153.3 50.4 174.7 1.4 0.6 3 1.1 4.5 1.7q2.3 0.8 4.6 1.5c1.5 0.6 3.1 1.1 4.7 1.5 36.5 10.8 80.7 12.3 121.8 12.3 111.5 0 253.7-10.7 314.4-191.8 7.1-21.4 11.5-40.4 13.5-57.2zm-184.9 94.9c-12.4 23.5-35 50.9-65.8 73.4-14.9 6.7-32.6 10.6-53.8 10.6-88 0-70.7-67.5-52.5-121.6 4.1-12.2 8.6-25.1 14.2-37.7 12.5-23.5 35.1-50.9 65.8-73.4 15-6.7 32.6-10.6 53.9-10.6 88 0 70.6 67.5 52.5 121.7-4.1 12.1-8.6 25-14.3 37.6z"/>
				<g>
					<path class="s0" d="m684.4 364.2c28.8-54.4 111.6-129.3 225.3-117.2 116.2 12.4 117.5 92.4 117.5 97.6 9.1-73.6-26.8-107.1-77.8-122.3-14.9-3.4-32.4-5.3-53-5.3-169.3 0-211.9 147.3-211.9 147.3z"/>
					<path class="s0" d="m842.4 439.4c-28.7 54.3-111.6 129.3-225.3 117.2-116.1-12.4-117.5-92.5-117.5-97.7-9 73.6 26.9 107.1 77.9 122.3 14.8 3.4 32.3 5.4 52.9 5.4 169.3 0 211.9-147.3 211.9-147.3z"/>
				</g>
			</g>
			<g>
				<path class="s1" d="m1344.7 458c231-59.5 197.1-183.6 197.1-183.6-11.6-56.2-90.6-63.7-143.6-63.7-53.1 0-136.2 24.6-161.8 32.9 6.1-17.9 38.3-33.5 38.3-33.5h-101.4c-22.1 0-43.5 21.7-49.1 37.8l-66.2 197.7c-16.1 0-32.3-0.6-48.5-1.7 8.5 6.3 22.4 13.8 42.2 20.6l-43.2 129.2h114.3c14.9 0 35-13.6 41.5-33.1l26.7-79.8h0.1l156.2 112.9h183.2c0 0-162.9-120.4-185.9-135.6zm-76.7-207.5c0 0 8.9-1.2 15.2-1.7 33-2.4 123.8-0.2 116 65.6-6.2 52.1-96 93.6-191 115.1z"/>
				<path class="s0" d="m1541.7 274.4c0 0 35.9 131-216.6 188.4-190.4 41.2-285.7 3-315.6-18.9 0 0 88.7 34 290-5.2 201.3-39.2 241.8-134.1 242.3-164.2z"/>
			</g>
		</g>
	</g>
</svg>