<?xml version="1.0" encoding="UTF-8"?><svg id="b" xmlns="http://www.w3.org/2000/svg" width="240" height="82.57" viewBox="0 0 240 82.57"><defs><style>.d{fill:#fff;}.e{fill:#ed1c24;}</style></defs><g id="c"><path class="e" d="M76.13,48.27c-.38-.64-.87-1.42-1.23-2.05l.44-.24,13-6.67c-2.49,1.83-9.35,6.86-12.21,8.95M69.95,31.87c.62-1.08,1.27-1.97,2.02-2.68h.28v-.03h.03l.19-.36c.64-.38.98-.43,1.11-.43.04,0,.07,0,.1.02.27.09.32.19.34.22.12.28,0,.92-.29,1.52l-.04.09-.19.33c-1.32,2.34-3.02,5.32-4.34,7.71-.49-1.66-.53-3.92.81-6.38M237.66,17.14l-15,.12c-.03-.17-.06-.3-.06-.33-.14-.71-.51-2.51.85-7.14l2.18-6.85.93-2.93-2.83,1.48-19.6,10.29-1.61.85,1.38,1.16,3.77,3.19c.12.12.24.26.34.41h-7.62s-.82,0-.82,0l-.36.7-.03.07-4.37,8.58c-.26-.42-.47-.69-.5-.71-3.34-4.1-9.44-4.45-15.43-4.45-.51,0-1.01,0-1.5,0l-12.29.15-.8.02-.35.67-2.07,3.87c-.07-.1-.15-.21-.23-.3-3.33-4.11-9.48-4.45-15.49-4.45h-1.43c-.42,0-9.57.12-11.83.18l.02-.04h-1.83c-3.99.01-8.17.01-11.61.01h-8.12l-.38.32c-.11.08-10.55,8.89-18.09,16-.79.1-2.05.27-2.66.35l2.85-1.46.38-.2.18-.35.7-1.33c2.41-4.62,2.24-9.08-.5-13.26-3.34-5.06-9.65-7.98-17.3-7.98-5.31,0-10.52,1.41-15.99,4.3-6.16,3.21-8.9,7.59-10.99,11.43-3.48,6.45-2.91,12.72-1.91,18,.71,3.8,1.94,6.79,3.21,9.96l.27.66c.56,1.39.4,3.14-.34,3.61-1.58,1-4.75,1.91-8.28,2.38-.8.11-1.67.16-2.59.16-1.93,0-3.89-.24-5.38-.44-3.2-.46-6.25-1.14-12.28-3.35l-2.36-.87-.64-.23-.57.35-16.54,10.35-2.12,1.33,2.35.88,8.8,3.27c8.73,3.26,20.34,7,32.61,7,1.71,0,3.42-.08,5.08-.23,4.34-.38,9.96-2.01,15.01-4.35,4.11-1.89,9.7-5.11,13.39-9.76l10.82-.09h.59l.39-.42,9.46-10.26-5.91,9.08-1.23,1.89h2.35l38.42.06h.89s.34-.79.34-.79l6.1-14.57c.38.02.76.04,1.15.04.33,0,.56,0,.66-.02,1.73-.08,4.61-.33,7.53-1-3.09,6.02-7.42,14.15-7.47,14.25l-.96,1.81h2.15l21-.03h1l.34-.76.02-.05,7.05-15.66c1.01.21,2.51.42,4.24.45h.31c1.53,0,3.51-.16,5.57-.76l-10.36,17.98-1.08,1.87,2.25-.03,41.39-.59h.91s.31-.8.31-.8l5.54-14.21.67-1.75-1.97.07-17.15.61,1.23-2.67,13.64.3h.83s.38-.7.38-.7l7.55-14.39.98-1.88-2.22.08-12.13.45.8-1.65c3.53-.2,15.32-.85,15.45-.86l.68-.04.36-.56,8.68-13.59,1.21-1.91h-2.34Z"/><path class="d" d="M225.74,28.52c-4.58.3-12.01.63-16.64.98l-4.24,9.92,13.65-.52-4.51,8.73-14.67-.32-5.6,12.31,19.74-.7-2.55,6.17-29.88.42,9.98-18.56-4.06.52,5.74-8.18h2.43s8.91-16.65,8.91-16.65l25.35-.21-3.66,6.07M65.33,41.38c-1.76-3.88-1.61-7.7.41-11.48,2.16-4.01,5.19-6.03,9.03-6.03,2.06,0,3.27.87,3.67,2.64.28,1.56-.04,3.2-.96,4.89-.06.17-4.43,9-4.97,9.89l16.35-8.41c3.18-6.09-1.76-13.2-12.35-13.2-4.21,0-8.41,1.15-12.96,3.54-4.58,2.4-6.68,5.68-8.48,8.99-2.55,4.75-2.21,9.58-1.31,14.27.66,3.45,1.85,6.29,3.17,9.55,1.47,3.6.91,8.34-2.69,10.61-2.94,1.86-7.44,2.85-10.87,3.31-3.25.44-6.52.16-9.77-.29-3.54-.49-6.95-1.24-13.61-3.68l-6.57,4.1c10.99,4.1,23.01,7.43,34.83,6.39,8.79-.78,26.7-6.46,26.5-17.49-.07-3.27-2.08-5.85-3.79-8.53-1.99-3.15-3.81-5.8-5.65-9.08M213.54,20.5l4.46-2.46c-.38-2.08.15-5.34,1.47-9.83l-8.89,4.61c1.44,1.41,2.38,3.23,2.75,5.56l.22,2.12ZM113.12,42.72l6.47-11.4-5.37.96-13.29,11.33,12.19-.88ZM118.57,48.79c-2.14,5.51-3.99,10.44-5.54,14.95h-10.95l8.46-14.5-13.76,1-11.12,13.24-8.8.07c3.55-4.65,7.24-8.98,10.97-13.2-3.77.31-6.61.58-6.61.58l9.52-6.84,2.93-.3c5.58-5.71,13.18-12.79,19.14-17.61h14.96c-2.14,5.15-4.06,9.86-7.02,16.83h2.45l-3.33,5.79h-1.28ZM182.56,36.1c1.38-6.47-7.21-5.58-8.09-3.49-.88,2.1-4.05,8.64-4.05,8.64,8.7,2.51,11.42-3.11,12.14-5.15M190.68,36.96c-1.22,3.2-3.39,9.64-15.94,10.28-1.51.07-5.37-.2-6.56-1.12l-7.58,17.35h-11.23c1.87-3.01,6.7-12.69,11.1-21.74l-2.55-1.87c1.25,0,3.71-1.82,3.71-1.82l.49.26c2.29-4.73,4.57-9.46,5.82-12.12,0,0,.05-.04,10.88-.5,7.55-.32,14.29,4.9,11.87,11.27M150.3,36.18c1.38-6.48-6.57-5.39-7.45-3.3-.87,2.1-4.59,9.51-4.59,9.51,8.86,1.72,11.31-4.19,12.04-6.22M158.42,37.04c-1.3,3.16-4.72,9.67-17.29,10.31-1.5.07-4.03-.24-5.2-1.16l-7.59,17.35h-11.23c1.88-3.01,6.7-12.69,11.08-21.73l-2.54-1.88c1.25,0,3.72-1.82,3.72-1.82l.49.26c2.29-4.72,4.56-9.46,5.8-12.12,0,0,.05-.04,10.88-.51,7.57-.31,14.56,4.63,11.87,11.28"/><path class="e" d="M229.76,61.06c-2.44,0-4.43,1.88-4.43,4.19s1.99,4.19,4.43,4.19,4.42-1.88,4.42-4.19-1.98-4.19-4.42-4.19M229.76,69.73c-2.62,0-4.75-2.01-4.75-4.49s2.13-4.49,4.75-4.49,4.75,2.01,4.75,4.49-2.13,4.49-4.75,4.49M228.72,64.78h.9c.94,0,1.53-.47,1.53-1.18,0-.8-.64-1.15-1.56-1.15-.42,0-.72.03-.87.08v2.26ZM227.84,61.95c.44-.08,1.09-.14,1.68-.14.94,0,1.56.17,1.98.52.33.27.53.69.53,1.18,0,.81-.57,1.35-1.28,1.58v.03c.51.17.83.61,1,1.25.22.87.38,1.47.51,1.71h-.91c-.11-.17-.26-.71-.44-1.48-.2-.86-.58-1.18-1.37-1.21h-.83v2.69h-.88v-6.12Z"/></g></svg>